<?xml version="1.0" encoding="utf-8"?>
<!-- Generator: Adobe Illustrator 16.0.0, SVG Export Plug-In . SVG Version: 6.00 Build 0)  -->
<!DOCTYPE svg PUBLIC "-//W3C//DTD SVG 1.1//EN" "http://www.w3.org/Graphics/SVG/1.1/DTD/svg11.dtd">
<svg version="1.1" id="Layer_1" xmlns="http://www.w3.org/2000/svg" xmlns:xlink="http://www.w3.org/1999/xlink" x="0px" y="0px"
	 width="900px" height="900px" viewBox="0 0 900 900" enable-background="new 0 0 900 900" xml:space="preserve">
<g>
	<g>
		<g>
			<path fill="#F16C53" d="M501.307,891.258c-206.549,23.84-399.104-96.743-468.177-293.094
				C-47.909,367.724,73.557,114.328,303.965,33.272c31.391-10.991,63.896-18.478,96.649-22.291
				c206.553-23.795,399.076,96.773,468.149,293.172c39.279,111.639,32.736,231.834-18.419,338.512
				c-51.15,106.678-140.794,187.067-252.416,226.302C566.584,880.021,534.032,887.521,501.307,891.258z M404.397,43.75
				c-30.306,3.52-60.408,10.48-89.489,20.679C101.707,139.455-10.738,373.908,64.225,587.142
				c64.003,181.812,242.159,293.374,433.286,271.378c30.321-3.52,60.408-10.447,89.442-20.71
				c103.296-36.334,186.292-110.679,233.633-209.435c47.34-98.71,53.386-209.962,17.084-313.277
				C773.708,133.316,595.543,21.74,404.397,43.75z"/>
		</g>
		<g>
			<g>
				<path fill="#F16C53" d="M222.616,623.43l-70.222-224.254l30.833-9.657l28.97,92.696c1.04,3.286,2.078,7.612,2.823,11.951
					c5.457-17.174,18.041-32.567,38.039-38.845c32.305-10.139,61.772,5.27,74.374,45.697l25.593,81.598l-31.127,9.765
					l-25.188-80.451c-7.735-24.832-25.641-33.667-44.783-27.668c-18.832,5.875-29.03,27.762-23.577,49.386l25.08,80.126
					L222.616,623.43z"/>
			</g>
			<g>
				<path fill="#F16C53" d="M361.876,501.995c-12.895-41.249,8.992-83.582,49.667-96.323c40.363-12.635,82.776,9.548,95.688,50.797
					c13.035,41.651-9.144,84.031-49.526,96.68C417.047,565.875,374.915,543.584,361.876,501.995z M476.463,466.155
					c-8.357-26.584-31.188-40.814-56.316-32.955c-25.408,7.983-35.979,32.955-27.746,59.229
					c8.416,26.925,32.193,40.861,56.702,33.141C474.215,517.743,484.847,493.05,476.463,466.155z"/>
			</g>
			<g>
				<path fill="#F16C53" d="M583.559,488.416c1.873,4.976,4.17,11.208,6.588,18.988l23.672,75.646l-29.874,9.331l-67.63-215.852
					l30.802-9.705l3.829,12.324c0.481,1.425,0.759,3.379,1.284,5.131c6.466-16.199,19.655-28.475,37.019-33.917
					c37.342-11.703,72.545,11.44,85.656,53.309c13.164,42.162-1.626,81.906-39.278,93.719
					C617.381,503.095,598.686,499.126,583.559,488.416z M644.169,413.654c-8.418-26.941-30.166-40.831-52.597-33.825
					c-23.031,7.255-31.281,30.181-22.662,57.696c8.248,26.289,28.584,41.961,51.604,34.737
					C642.6,465.303,652.599,440.533,644.169,413.654z"/>
			</g>
			<g>
				<path fill="#F16C53" d="M734.088,417.668c12.246-3.845,25.578,3.116,29.359,15.113c3.828,12.23-3.146,25.592-15.407,29.437
					c-11.951,3.736-25.329-3.239-29.188-15.485C715.129,434.751,722.123,421.358,734.088,417.668z M711.643,397.439l-46.269-142.502
					l32.04-9.967l43.264,143.354L711.643,397.439z"/>
			</g>
		</g>
	</g>
</g>
</svg>
