<?xml version="1.0" encoding="utf-8"?>
<!-- Generator: Adobe Illustrator 16.0.0, SVG Export Plug-In . SVG Version: 6.00 Build 0)  -->
<!DOCTYPE svg PUBLIC "-//W3C//DTD SVG 1.1//EN" "http://www.w3.org/Graphics/SVG/1.1/DTD/svg11.dtd">
<svg version="1.1" id="Layer_1" xmlns="http://www.w3.org/2000/svg" xmlns:xlink="http://www.w3.org/1999/xlink" x="0px" y="0px"
	 width="1108px" height="884.675px" viewBox="0 0 1108 884.675" enable-background="new 0 0 1108 884.675" xml:space="preserve">
<rect x="222.306" y="99.098" fill="#2CB578" width="210.09" height="147.642"/>
<polygon fill="#2CB578" points="306.477,246.74 267.716,292.148 267.716,246.74 "/>
<polygon fill="#189248" points="432.396,99.098 306.477,246.74 267.716,246.74 267.716,99.098 "/>
<polygon fill="#1CBEE4" points="812.884,79.163 812.884,246.74 787.324,246.74 787.324,150.214 668.053,79.163 "/>
<polygon fill="#1CBEE4" points="787.324,246.74 787.324,317.707 668.053,246.74 "/>
<polygon fill="#1E86C0" points="787.324,150.214 787.324,246.74 668.053,246.74 668.053,79.163 "/>
<path fill="#7066A4" d="M433.239,564.795c0,55.366-44.881,100.242-100.239,100.242c-55.361,0-100.238-44.876-100.238-100.242
	c0-55.365,44.877-100.242,100.238-100.242C388.358,464.553,433.239,509.43,433.239,564.795z"/>
<polyline fill="none" stroke="#A091E2" stroke-width="20.848" stroke-miterlimit="10" points="333,499.936 333,564.795 
	360.797,592.594 "/>
<polygon fill="#FCBA4A" points="699.294,659.939 616.942,634.357 616.942,469.651 699.294,495.233 "/>
<polygon fill="#FCBA4A" points="864,659.939 781.646,634.357 781.646,469.651 864,495.233 "/>
<polygon fill="#FCD74C" points="699.294,659.939 781.646,634.357 781.646,469.651 699.294,495.233 "/>
<g>
</g>
<g>
</g>
<g>
</g>
<g>
</g>
<g>
</g>
<g>
</g>
<g>
</g>
<g>
</g>
<g>
</g>
<g>
</g>
<g>
</g>
<g>
</g>
<g>
</g>
<g>
</g>
<g>
</g>
</svg>
