<?xml version="1.0" encoding="utf-8"?>
<!-- Generator: Adobe Illustrator 16.0.0, SVG Export Plug-In . SVG Version: 6.00 Build 0)  -->
<!DOCTYPE svg PUBLIC "-//W3C//DTD SVG 1.1//EN" "http://www.w3.org/Graphics/SVG/1.1/DTD/svg11.dtd">
<svg version="1.1" id="Layer_1" xmlns="http://www.w3.org/2000/svg" xmlns:xlink="http://www.w3.org/1999/xlink" x="0px" y="0px"
	 width="1288px" height="884.675px" viewBox="0 0 1288 884.675" enable-background="new 0 0 1288 884.675" xml:space="preserve">
<rect x="328.306" y="99.098" fill="#2CB578" width="210.09" height="147.642"/>
<polygon fill="#2CB578" points="412.477,246.74 373.716,292.148 373.716,246.74 "/>
<polygon fill="#189248" points="538.396,99.098 412.477,246.74 373.716,246.74 373.716,99.098 "/>
<polygon fill="#1CBEE4" points="918.884,79.163 918.884,246.74 893.324,246.74 893.324,150.214 774.053,79.163 "/>
<polygon fill="#1CBEE4" points="893.324,246.74 893.324,317.707 774.053,246.74 "/>
<polygon fill="#1E86C0" points="893.324,150.214 893.324,246.74 774.053,246.74 774.053,79.163 "/>
<path fill="#7066A4" d="M539.239,564.795c0,55.366-44.881,100.242-100.239,100.242c-55.361,0-100.238-44.876-100.238-100.242
	c0-55.365,44.877-100.242,100.238-100.242C494.358,464.553,539.239,509.43,539.239,564.795z"/>
<polyline fill="none" stroke="#A091E2" stroke-width="20.848" stroke-miterlimit="10" points="439,499.936 439,564.795 
	466.797,592.594 "/>
<polygon fill="#FCBA4A" points="805.294,659.939 722.942,634.357 722.942,469.651 805.294,495.233 "/>
<polygon fill="#FCBA4A" points="970,659.939 887.646,634.357 887.646,469.651 970,495.233 "/>
<polygon fill="#FCD74C" points="805.294,659.939 887.646,634.357 887.646,469.651 805.294,495.233 "/>
<g>
</g>
<g>
</g>
<g>
</g>
<g>
</g>
<g>
</g>
<g>
</g>
<g>
</g>
<g>
</g>
<g>
</g>
<g>
</g>
<g>
</g>
<g>
</g>
<g>
</g>
<g>
</g>
<g>
</g>
</svg>
